<?xml version="1.0" standalone="no"?>
<!DOCTYPE svg PUBLIC "-//W3C//DTD SVG 20010904//EN"
 "http://www.w3.org/TR/2001/REC-SVG-20010904/DTD/svg10.dtd">
<svg version="1.0" xmlns="http://www.w3.org/2000/svg"
 width="400.000000pt" height="400.000000pt" viewBox="0 0 400.000000 400.000000"
 preserveAspectRatio="xMidYMid meet">
<metadata>
Created by potrace 1.14, written by Peter Selinger 2001-2017
</metadata>
<g transform="translate(0.000000,400.000000) scale(0.100000,-0.100000)"
fill="#000000" stroke="none">
<path d="M3163 3978 c-1 -12 -8 -60 -19 -118 -2 -14 -11 -62 -19 -106 -8 -45
-17 -103 -21 -130 -3 -27 -8 -51 -9 -54 -3 -5 -28 -142 -41 -225 -2 -16 -7
-43 -11 -60 -3 -16 -7 -39 -9 -50 -1 -11 -16 -99 -34 -195 -17 -96 -38 -213
-46 -260 -8 -47 -19 -107 -24 -135 -5 -27 -12 -66 -15 -85 -3 -19 -12 -71 -20
-115 -8 -44 -17 -96 -20 -115 -13 -78 -17 -97 -26 -139 -5 -24 -8 -45 -6 -47
2 -2 36 65 77 149 41 83 119 244 174 357 55 113 100 207 101 210 1 3 43 91 94
195 230 469 230 467 212 495 -35 53 -322 435 -330 438 -4 1 -8 -3 -8 -10z"/>
<path d="M2517 3078 c-63 -128 -289 -583 -501 -1011 l-387 -779 72 -221 c40
-122 74 -226 75 -232 2 -9 32 -102 183 -565 l58 -175 21 110 c12 61 40 204 62
320 23 116 43 221 46 235 2 14 7 36 9 50 3 14 7 36 10 50 3 14 25 131 51 260
43 222 50 255 58 306 2 11 13 68 25 125 11 57 23 115 25 129 2 14 14 70 25
125 11 55 22 111 24 125 3 14 8 43 12 65 11 60 12 64 29 145 8 41 18 89 21
105 5 31 8 46 25 130 5 28 13 68 16 90 3 22 8 43 10 46 2 3 6 21 9 40 3 19 8
45 10 59 3 14 7 36 10 50 18 93 71 369 96 494 17 81 28 150 26 152 -2 3 -56
-100 -120 -228z"/>
<path d="M1110 2888 c21 -51 73 -181 115 -288 42 -107 80 -204 85 -215 19 -42
200 -504 200 -512 0 -4 7 -16 14 -26 13 -16 19 -9 67 80 30 54 59 107 66 118
29 49 51 100 44 105 -4 3 -59 75 -122 160 -62 85 -119 162 -126 170 -7 8 -35
47 -63 85 -28 39 -56 77 -63 85 -7 8 -64 86 -127 172 -63 87 -118 158 -122
158 -3 0 11 -42 32 -92z"/>
<path d="M3023 1602 l-252 -85 -25 -81 c-13 -45 -49 -162 -80 -261 -30 -99
-91 -301 -136 -449 -44 -148 -83 -272 -85 -276 -2 -3 -6 -17 -9 -31 -3 -13
-16 -60 -30 -104 -14 -43 -24 -80 -23 -81 1 -1 49 73 106 165 238 378 565 897
667 1058 154 243 148 233 132 232 -7 -1 -126 -40 -265 -87z"/>
<path d="M970 1419 c-30 -10 -64 -21 -75 -23 -11 -3 -49 -14 -85 -25 -36 -10
-121 -36 -190 -56 -69 -21 -127 -39 -130 -42 -3 -2 281 -287 630 -633 349
-346 636 -628 637 -627 5 6 -714 1427 -722 1426 -5 0 -35 -9 -65 -20z"/>
</g>
</svg>
