<svg
      xmlns="http://www.w3.org/2000/svg"
      width="391.307"
      height="435"
      version="1.1"
      viewBox="0 0 391.307 435"
    >
      <defs>
        <clipPath id="clipPath28" clipPathUnits="userSpaceOnUse">
          <path d="M1238.09 770.359L385.523 1762.2c-15.984 18.56 5.696 45.39 27.196 33.63l573.277-311.08c27.004-14.7 47.954-38.77 58.614-67.61l230.78-624.73c8.45-22.969-21.32-40.609-37.3-22.051z"></path>
        </clipPath>
        <linearGradient
          id="linearGradient34"
          x1="0"
          x2="1"
          y1="0"
          y2="0"
          gradientTransform="scale(2705.238) rotate(-72.41 .86 .552)"
          gradientUnits="userSpaceOnUse"
          spreadMethod="pad"
        >
          <stop offset="0" stopColor="#f58013" stopOpacity="1"></stop>
          <stop offset="1" stopColor="#f19d19" stopOpacity="1"></stop>
        </linearGradient>
        <clipPath id="clipPath44" clipPathUnits="userSpaceOnUse">
          <path d="M1361.2 998.391L1126.01 2161.11c-3.49 17.28 0 35.47 9.38 50.35l410.48 642.36c8.26 12.87 28.29 6.07 26.82-9.37L1390.05 999.859c-1.65-16.718-25.54-17.82-28.85-1.468z"></path>
        </clipPath>
        <linearGradient
          id="linearGradient50"
          x1="0"
          x2="1"
          y1="0"
          y2="0"
          gradientTransform="scale(2585.6) rotate(-86.39 .96 .402)"
          gradientUnits="userSpaceOnUse"
          spreadMethod="pad"
        >
          <stop offset="0" stopColor="#f58013" stopOpacity="1"></stop>
          <stop offset="1" stopColor="#f19d19" stopOpacity="1"></stop>
        </linearGradient>
        <clipPath id="clipPath60" clipPathUnits="userSpaceOnUse">
          <path d="M1564.78 1340.89l451.27 656.51c15.44 22.42 42.27 33.99 69.28 29.95l288.65-43.73c18.56-2.76 24.81-26.46 10.11-38.04l-796.71-626.01c-14.14-11.02-32.7 6.43-22.6 21.13z"></path>
        </clipPath>
        <linearGradient
          id="linearGradient66"
          x1="0"
          x2="1"
          y1="0"
          y2="0"
          gradientTransform="scale(1807.29) rotate(-82.96 1.433 .256)"
          gradientUnits="userSpaceOnUse"
          spreadMethod="pad"
        >
          <stop offset="0" stopColor="#f58013" stopOpacity="1"></stop>
          <stop offset="1" stopColor="#f19d19" stopOpacity="1"></stop>
        </linearGradient>
        <clipPath id="clipPath76" clipPathUnits="userSpaceOnUse">
          <path d="M1632.22 1791.06L1863 3250.16c2.39 15.06 23.33 16.9 28.29 2.38l204.69-596.06c6.07-17.82 4.6-37.3-4.22-54.02l-432.16-820.59c-7.72-14.52-29.95-7.17-27.38 9z"></path>
        </clipPath>
        <linearGradient
          id="linearGradient82"
          x1="0"
          x2="1"
          y1="0"
          y2="0"
          gradientTransform="rotate(-84.44 2712.047 695.209) scale(2563.75)"
          gradientUnits="userSpaceOnUse"
          spreadMethod="pad"
        >
          <stop offset="0" stopColor="#f58013" stopOpacity="1"></stop>
          <stop offset="1" stopColor="#f19d19" stopOpacity="1"></stop>
        </linearGradient>
        <clipPath id="clipPath92" clipPathUnits="userSpaceOnUse">
          <path d="M642.949 2078.97l51.633 366.57c2.203 15.07 22.785 17.82 28.848 3.86l318.43-742.14c6.43-15.06-12.32-28.11-24.26-16.9l-355.358 333.49c-15.066 14.15-22.414 34.91-19.476 55.31z"></path>
        </clipPath>
        <linearGradient
          id="linearGradient98"
          x1="0"
          x2="1"
          y1="0"
          y2="0"
          gradientTransform="scale(2318.645) rotate(-64.51 1.06 .478)"
          gradientUnits="userSpaceOnUse"
          spreadMethod="pad"
        >
          <stop offset="0" stopColor="#f58013" stopOpacity="1"></stop>
          <stop offset="1" stopColor="#f19d19" stopOpacity="1"></stop>
        </linearGradient>
      </defs>
      <g transform="matrix(1.33333 0 0 -1.33333 0 435)">
        <g transform="scale(.1)">
          <path
            fill="#100f0d"
            fillOpacity="1"
            fillRule="nonzero"
            stroke="none"
            d="M100.191 19.96C58.234 32.55 24.805 49.7 0 70.923l37.5 84.398c23.934-18.988 53.293-34.3 88.465-46.511 34.789-12.207 69.961-18.02 105.133-18.02 43.312 0 75.871 6.781 97.48 20.731 21.606 13.96 32.07 32.46 32.07 55.039 0 16.671-5.91 30.722-18.019 41.57-12.211 10.851-27.035 19.383-45.543 25.68-18.508 6.3-43.313 13.082-75.387 20.73-44.668 10.371-80.812 21.223-108.332 31.59-27.515 10.371-51.449 27.043-71.312 49.609-19.864 22.582-29.75 53.301-29.75 91.672 0 32.461 8.527 61.82 26.164 88.461 17.633 26.649 44.183 47.391 79.453 63.18 35.66 15.801 78.973 23.449 129.941 23.449 35.657 0 70.828-4.551 105.617-13.57 34.786-9.008 64.532-21.7 89.336-38.371l-34.3-84.387c-25.676 14.918-52.325 26.637-80.328 34.297-28 7.652-55.036 11.722-81.2 11.722-42.828 0-74.898-7.261-95.636-21.699-20.735-14.441-31.586-33.82-31.586-57.754 0-16.668 5.91-30.226 18.019-41.09 12.113-10.847 27.035-18.988 45.543-25.289 18.508-6.3 43.313-13.078 75.387-20.73 43.312-9.891 79.457-20.348 106.973-31.59 28.003-10.848 51.937-27.519 71.8-49.609 19.864-22.098 29.746-52.328 29.746-90.309 0-32.461-8.523-61.82-26.16-87.98-17.636-26.16-44.183-46.899-79.844-62.692C325.574 7.65 281.777 0 230.809 0c-44.668.48-87.985 7.262-130.422 19.86l-.196.1"
          ></path>
          <path
            fill="#100f0d"
            fillOpacity="1"
            fillRule="nonzero"
            stroke="none"
            d="M938.34 300.281c24.418 20.348 37.012 48.739 37.012 86.239 0 37.5-12.207 66.371-37.012 86.242-24.418 20.34-60.465 30.23-107.848 30.23h-127.32V270.531h127.32c47.383 0 83.528 9.891 107.848 29.75zm29.746 269.86c37.504-16.672 66.374-40.602 86.624-72.192 20.35-31.109 30.23-68.117 30.23-111.429 0-43.321-9.88-79.461-30.23-111.051-20.35-31.578-48.74-55.52-86.624-72.18C930.586 186.621 886.402 178 835.434 178H703.172V8.719H594.355v586.32H835.34c50.578 0 94.762-8.141 132.648-24.809l.098-.089"
          ></path>
          <path
            fill="#100f0d"
            fillOpacity="1"
            fillRule="nonzero"
            stroke="none"
            d="M1490.27 230.32l-110.56 256.391-109.69-256.391zm36.14-85.75h-292.92L1175.74 9.2h-112.4l263.56 585.839h106.97L1698.4 9.199h-113.76l-58.23 135.371"
          ></path>
          <path
            fill="#100f0d"
            fillOpacity="1"
            fillRule="nonzero"
            stroke="none"
            d="M2121.76 472.762c-24.42 20.34-60.47 30.23-107.85 30.23h-127.32V269.66h127.32c47.38 0 83.53 10.371 107.85 30.719 24.32 20.34 37.01 49.223 37.01 86.621 0 37.02-12.21 65.891-37.01 85.762zM2161 9.199l-119.57 171.512c-4.94-.492-12.6-.871-22.58-.871h-132.26V9.2h-108.82v585.839h240.99c50.58 0 95.24-8.527 132.65-25.289 37.5-16.668 66.37-40.602 86.62-72.191 20.35-31.098 30.23-68.118 30.23-111.43 0-43.309-10.85-82.168-32.07-113.758-21.7-31.59-52.32-55.519-92.53-71.312L2278.63 8.332h-117.82v.867h.19"
          ></path>
          <path
            fill="#100f0d"
            fillOpacity="1"
            fillRule="nonzero"
            stroke="none"
            d="M2600.53 254.25L2507.51 159V9.2h-108.82v585.839h108.82v-300.57l289.72 300.57h122.28l-246.02-261.82 261.33-324.02H2807.5L2600.33 254.25h.2"
          ></path>
          <g>
            <g clipPath="url(#clipPath28)">
              <path
                fill="url(#linearGradient34)"
                fillOpacity="1"
                fillRule="nonzero"
                stroke="none"
                d="M1238.09 770.359L385.523 1762.2c-15.984 18.56 5.696 45.39 27.196 33.63l573.277-311.08c27.004-14.7 47.954-38.77 58.614-67.61l230.78-624.73c8.45-22.969-21.32-40.609-37.3-22.051"
              ></path>
            </g>
          </g>
          <g>
            <g clipPath="url(#clipPath44)">
              <path
                fill="url(#linearGradient50)"
                fillOpacity="1"
                fillRule="nonzero"
                stroke="none"
                d="M1361.2 998.391L1126.01 2161.11c-3.49 17.28 0 35.47 9.38 50.35l410.48 642.36c8.26 12.87 28.29 6.07 26.82-9.37L1390.05 999.859c-1.65-16.718-25.54-17.82-28.85-1.468"
              ></path>
            </g>
          </g>
          <g>
            <g clipPath="url(#clipPath60)">
              <path
                fill="url(#linearGradient66)"
                fillOpacity="1"
                fillRule="nonzero"
                stroke="none"
                d="M1564.78 1340.89l451.27 656.51c15.44 22.42 42.27 33.99 69.28 29.95l288.65-43.73c18.56-2.76 24.81-26.46 10.11-38.04l-796.71-626.01c-14.14-11.02-32.7 6.43-22.6 21.13v.19"
              ></path>
            </g>
          </g>
          <g>
            <g clipPath="url(#clipPath76)">
              <path
                fill="url(#linearGradient82)"
                fillOpacity="1"
                fillRule="nonzero"
                stroke="none"
                d="M1632.22 1791.06L1863 3250.16c2.39 15.06 23.33 16.9 28.29 2.38l204.69-596.06c6.07-17.82 4.6-37.3-4.22-54.02l-432.16-820.59c-7.72-14.52-29.95-7.17-27.38 9v.19"
              ></path>
            </g>
          </g>
          <g>
            <g clipPath="url(#clipPath92)">
              <path
                fill="url(#linearGradient98)"
                fillOpacity="1"
                fillRule="nonzero"
                stroke="none"
                d="M642.949 2078.97l51.633 366.57c2.203 15.07 22.785 17.82 28.848 3.86l318.43-742.14c6.43-15.06-12.32-28.11-24.26-16.9l-355.358 333.49c-15.066 14.15-22.414 34.91-19.476 55.31l.183-.19"
              ></path>
            </g>
          </g>
        </g>
      </g>
    </svg>