<?xml version="1.0" encoding="utf-8"?>
<!-- Generator: Adobe Illustrator 25.4.6, SVG Export Plug-In . SVG Version: 6.00 Build 0)  -->
<svg version="1.0" id="Layer_1" xmlns="http://www.w3.org/2000/svg" xmlns:xlink="http://www.w3.org/1999/xlink" x="0px" y="0px"
	 viewBox="0 0 1366 768" style="enable-background:new 0 0 1366 768;" xml:space="preserve">
<style type="text/css">
	.st0{fill:url(#SVGID_1_);}
	.st1{fill:url(#SVGID_00000145750553179426511390000005723601667209695934_);}
	.st2{fill:url(#SVGID_00000116212826326619268900000011181076066774771853_);}
	.st3{fill:url(#SVGID_00000168801341302510455540000008776106517653174938_);}
	.st4{fill:url(#SVGID_00000169535725753187658390000015788084383121121971_);}
	.st5{fill:#39454C;}
</style>
<g>
	<linearGradient id="SVGID_1_" gradientUnits="userSpaceOnUse" x1="663.704" y1="42.9242" x2="663.704" y2="461.6232">
		<stop  offset="0" style="stop-color:#F2B72D"/>
		<stop  offset="1" style="stop-color:#F2A52B"/>
	</linearGradient>
	<polygon class="st0" points="654.3,476.3 602.4,316.1 725.1,80.1 	"/>
	
		<linearGradient id="SVGID_00000061447923507493307740000003720282593641074840_" gradientUnits="userSpaceOnUse" x1="574.6782" y1="42.9242" x2="574.6782" y2="461.6232">
		<stop  offset="0" style="stop-color:#F2B72D"/>
		<stop  offset="1" style="stop-color:#F2A52B"/>
	</linearGradient>
	<polygon style="fill:url(#SVGID_00000061447923507493307740000003720282593641074840_);" points="619.7,205.4 592.3,264.7 
		529.7,106.7 	"/>
	
		<linearGradient id="SVGID_00000156556948124765970680000004173037743922593466_" gradientUnits="userSpaceOnUse" x1="774.6924" y1="42.9242" x2="774.6924" y2="461.6232">
		<stop  offset="0" style="stop-color:#F2B72D"/>
		<stop  offset="1" style="stop-color:#F2A52B"/>
	</linearGradient>
	<polygon style="fill:url(#SVGID_00000156556948124765970680000004173037743922593466_);" points="781.6,55.2 718.2,302.3 
		831.2,139.4 	"/>
	
		<linearGradient id="SVGID_00000156588822278882217100000017555782799736081305_" gradientUnits="userSpaceOnUse" x1="757.1607" y1="42.9242" x2="757.1607" y2="461.6232">
		<stop  offset="0" style="stop-color:#F2B72D"/>
		<stop  offset="1" style="stop-color:#F2A52B"/>
	</linearGradient>
	<polygon style="fill:url(#SVGID_00000156588822278882217100000017555782799736081305_);" points="758.2,299.6 686.5,466.4 
		827.8,317.1 	"/>
	
		<linearGradient id="SVGID_00000005263910244480676760000016714174452619877288_" gradientUnits="userSpaceOnUse" x1="559.8507" y1="42.9242" x2="559.8507" y2="461.6232">
		<stop  offset="0" style="stop-color:#F2B72D"/>
		<stop  offset="1" style="stop-color:#F2A52B"/>
	</linearGradient>
	<polygon style="fill:url(#SVGID_00000005263910244480676760000016714174452619877288_);" points="639.5,498.4 480.2,356.1 
		555.7,333.3 	"/>
</g>
<g>
	<path class="st5" d="M379.9,648.7c-9.3-2.8-16.7-6.6-22.2-11.3l8.3-18.7c5.3,4.2,11.8,7.6,19.6,10.3c7.7,2.7,15.5,4,23.3,4
		c9.6,0,16.8-1.5,21.6-4.6c4.8-3.1,7.1-7.2,7.1-12.2c0-3.7-1.3-6.8-4-9.2c-2.7-2.4-6-4.3-10.1-5.7c-4.1-1.4-9.6-2.9-16.7-4.6
		c-9.9-2.3-17.9-4.7-24-7c-6.1-2.3-11.4-6-15.8-11c-4.4-5-6.6-11.8-6.6-20.3c0-7.2,1.9-13.7,5.8-19.6c3.9-5.9,9.8-10.5,17.6-14
		c7.9-3.5,17.5-5.2,28.8-5.2c7.9,0,15.7,1,23.4,3c7.7,2,14.3,4.8,19.8,8.5l-7.6,18.7c-5.7-3.3-11.6-5.9-17.8-7.6
		c-6.2-1.7-12.2-2.6-18-2.6c-9.5,0-16.6,1.6-21.2,4.8c-4.6,3.2-7,7.5-7,12.8c0,3.7,1.3,6.7,4,9.1c2.7,2.4,6,4.2,10.1,5.6
		c4.1,1.4,9.6,2.9,16.7,4.6c9.6,2.2,17.6,4.5,23.7,7c6.2,2.4,11.5,6.1,15.9,11c4.4,4.9,6.6,11.6,6.6,20c0,7.2-1.9,13.7-5.8,19.5
		c-3.9,5.8-9.8,10.4-17.7,13.9c-7.9,3.5-17.6,5.2-28.9,5.2C398.9,653,389.2,651.5,379.9,648.7z"/>
	<path class="st5" d="M572.1,526.8c8.3,3.7,14.7,9,19.2,16c4.5,6.9,6.7,15.1,6.7,24.7c0,9.4-2.2,17.6-6.7,24.6
		c-4.5,7-10.8,12.3-19.2,16c-8.3,3.7-18.1,5.6-29.4,5.6h-29.3v37.5h-24.1V521.3h53.4C554,521.3,563.8,523.1,572.1,526.8z
		 M565.5,586.6c5.4-4.5,8.2-10.8,8.2-19.1c0-8.3-2.7-14.7-8.2-19.1c-5.4-4.5-13.4-6.7-23.9-6.7h-28.2v51.6h28.2
		C552.1,593.2,560.1,591,565.5,586.6z"/>
	<path class="st5" d="M695.8,621.1h-64.9l-12.8,30h-24.9l58.4-129.8h23.7L734,651.1h-25.2L695.8,621.1z M687.8,602.1l-24.5-56.8
		L639,602.1H687.8z"/>
	<path class="st5" d="M836.5,651.1l-26.5-38c-1.1,0.1-2.8,0.2-5,0.2h-29.3v37.8h-24.1V521.3h53.4c11.2,0,21.1,1.9,29.4,5.6
		s14.7,9,19.2,16c4.5,6.9,6.7,15.1,6.7,24.7c0,9.8-2.4,18.2-7.1,25.2c-4.8,7-11.6,12.3-20.5,15.8l29.9,42.7H836.5z M827.7,548.4
		c-5.4-4.5-13.4-6.7-23.9-6.7h-28.2v51.7h28.2c10.5,0,18.5-2.3,23.9-6.8c5.4-4.5,8.2-10.9,8.2-19.2
		C835.9,559.2,833.2,552.8,827.7,548.4z"/>
	<path class="st5" d="M933.8,596.8l-20.6,21.1v33.2h-24.1V521.3h24.1v66.6l64.2-66.6h27.1l-54.5,58l57.9,71.8h-28.2L933.8,596.8z"/>
</g>
</svg>
