<svg version="1.1" id="Layer_1" xmlns="http://www.w3.org/2000/svg" xmlns:xlink="http://www.w3.org/1999/xlink" x="0px" y="0px"
	 width="100%" viewBox="0 0 64 64" enable-background="new 0 0 64 64" xml:space="preserve">
<path fill="#FEFFFF" opacity="1.000000" stroke="none" 
	d="
M41.000072,65.000000 
	C27.333387,65.000000 14.166720,65.000000 1.000040,65.000000 
	C1.000027,43.666683 1.000027,22.333368 1.000013,1.000040 
	C22.333315,1.000027 43.666630,1.000027 64.999954,1.000013 
	C64.999969,22.333315 64.999969,43.666630 64.999985,64.999969 
	C57.166698,65.000000 49.333393,65.000000 41.000072,65.000000 
M58.741421,6.171806 
	C52.030087,6.381427 45.318756,6.591048 38.440273,7.513352 
	C38.487587,7.752729 38.534897,7.992106 38.356556,9.022701 
	C38.449673,10.925790 38.542786,12.828877 38.672665,15.670683 
	C39.208771,15.900112 39.744877,16.129541 41.150097,16.626318 
	C46.677406,16.538906 52.204712,16.451492 58.670738,16.327291 
	C58.900154,15.791174 59.129570,15.255056 59.624443,13.938329 
	C59.557140,12.031511 59.489834,10.124693 59.559772,7.499670 
	C59.502693,7.262714 59.445610,7.025759 58.741421,6.171806 
M58.671959,59.327396 
	C58.901367,58.792164 59.130775,58.256931 59.626389,56.851967 
	C59.539345,51.323055 59.452297,45.794140 59.327431,39.328094 
	C58.792210,39.098671 58.256989,38.869251 56.940132,38.375648 
	C55.031841,38.442543 53.123550,38.509438 50.499817,38.439754 
	C50.263939,38.497246 50.028057,38.554741 49.178028,39.243870 
	C49.012299,42.429531 48.846569,45.615192 48.698715,48.457298 
	C44.938427,48.958755 41.772717,49.380920 38.440098,50.513096 
	C38.487183,50.751614 38.534264,50.990131 38.356640,52.020779 
	C38.449345,53.925442 38.542046,55.830109 38.672569,58.671909 
	C39.207790,58.901329 39.743011,59.130753 41.147987,59.626293 
	C46.676933,59.539272 52.205883,59.452255 58.671959,59.327396 
M18.738096,48.946461 
	C18.118240,47.659725 17.142521,46.421440 16.959255,45.075268 
	C16.660345,42.879616 16.878529,40.613567 16.878529,38.492691 
	C12.778788,38.492691 9.545677,38.492691 6.340927,38.492691 
	C6.340927,45.740566 6.340927,52.612343 6.340927,59.500206 
	C13.562893,59.500206 20.420164,59.500206 27.359421,59.500206 
	C27.359421,55.878574 27.359421,52.638714 27.359421,48.974876 
	C24.585752,48.974876 22.127077,48.974876 18.738096,48.946461 
M27.637068,15.066475 
	C27.637068,12.144122 27.637068,9.221769 27.637068,6.327008 
	C20.085814,6.327008 13.217134,6.327008 6.268670,6.327008 
	C6.268670,9.904713 6.268670,13.132565 6.268670,17.289145 
	C13.540976,16.820330 20.486839,16.372559 27.637068,15.066475 
z"/>
<path fill="#4FACAA" opacity="1.000000" stroke="none" 
	d="
M19.203249,48.960670 
	C22.127077,48.974876 24.585752,48.974876 27.359421,48.974876 
	C27.359421,52.638714 27.359421,55.878574 27.359421,59.500206 
	C20.420164,59.500206 13.562893,59.500206 6.340927,59.500206 
	C6.340927,52.612343 6.340927,45.740566 6.340927,38.492691 
	C9.545677,38.492691 12.778788,38.492691 16.878529,38.492691 
	C16.878529,40.613567 16.660345,42.879616 16.959255,45.075268 
	C17.142521,46.421440 18.118240,47.659725 19.203249,48.960670 
z"/>
<path fill="#53AEAB" opacity="1.000000" stroke="none" 
	d="
M38.607002,49.803085 
	C41.772717,49.380920 44.938427,48.958755 48.698715,48.457298 
	C48.846569,45.615192 49.012299,42.429531 49.623581,39.167381 
	C50.451176,38.919369 50.833218,38.747849 51.215260,38.576332 
	C53.123550,38.509438 55.031841,38.442543 57.544373,38.837700 
	C58.554157,39.621574 58.959705,39.943401 59.365253,40.265228 
	C59.452297,45.794140 59.539345,51.323055 59.163338,57.500271 
	C58.378468,58.554131 58.056648,58.959686 57.734833,59.365234 
	C52.205883,59.452255 46.676933,59.539272 40.499687,59.163273 
	C39.445843,58.378426 39.040295,58.056599 38.634747,57.734772 
	C38.542046,55.830109 38.449345,53.925442 38.711861,51.489449 
	C38.913723,50.573105 38.760365,50.188095 38.607002,49.803085 
z"/>
<path fill="#50ADAA" opacity="1.000000" stroke="none" 
	d="
M27.534885,15.495631 
	C20.486839,16.372559 13.540976,16.820330 6.268670,17.289145 
	C6.268670,13.132565 6.268670,9.904713 6.268670,6.327008 
	C13.217134,6.327008 20.085814,6.327008 27.637068,6.327008 
	C27.637068,9.221769 27.637068,12.144122 27.534885,15.495631 
z"/>
<path fill="#53AEAB" opacity="1.000000" stroke="none" 
	d="
M38.635899,14.731966 
	C38.542786,12.828877 38.449673,10.925790 38.712105,8.490877 
	C38.914246,7.572924 38.760834,7.186796 38.607422,6.800669 
	C45.318756,6.591048 52.030087,6.381427 58.825508,6.619618 
	C59.080574,7.450912 59.251549,7.834394 59.422527,8.217875 
	C59.489834,10.124693 59.557140,12.031511 59.161991,14.542901 
	C58.377033,15.553008 58.054527,15.958544 57.732021,16.364079 
	C52.204712,16.451492 46.677406,16.538906 40.501297,16.162910 
	C39.446960,15.376991 39.041431,15.054479 38.635899,14.731966 
z"/>
<path fill="#3EA4A1" opacity="1.000000" stroke="none" 
	d="
M38.523849,7.157010 
	C38.760834,7.186796 38.914246,7.572924 38.824936,8.095267 
	C38.534897,7.992106 38.487587,7.752729 38.523849,7.157010 
z"/>
<path fill="#3EA4A1" opacity="1.000000" stroke="none" 
	d="
M59.491150,7.858772 
	C59.251549,7.834394 59.080574,7.450912 59.149063,6.928117 
	C59.445610,7.025759 59.502693,7.262714 59.491150,7.858772 
z"/>
<path fill="#3EA4A1" opacity="1.000000" stroke="none" 
	d="
M38.654282,15.201324 
	C39.041431,15.054479 39.446960,15.376991 40.066738,16.029238 
	C39.744877,16.129541 39.208771,15.900112 38.654282,15.201324 
z"/>
<path fill="#3EA4A1" opacity="1.000000" stroke="none" 
	d="
M58.201378,16.345684 
	C58.054527,15.958544 58.377033,15.553008 59.029263,14.933207 
	C59.129570,15.255056 58.900154,15.791174 58.201378,16.345684 
z"/>
<path fill="#3EA4A1" opacity="1.000000" stroke="none" 
	d="
M50.857536,38.508041 
	C50.833218,38.747849 50.451176,38.919369 49.930653,38.851562 
	C50.028057,38.554741 50.263939,38.497246 50.857536,38.508041 
z"/>
<path fill="#3EA4A1" opacity="1.000000" stroke="none" 
	d="
M59.346344,39.796661 
	C58.959705,39.943401 58.554157,39.621574 57.935188,38.969788 
	C58.256989,38.869251 58.792210,39.098671 59.346344,39.796661 
z"/>
<path fill="#3EA4A1" opacity="1.000000" stroke="none" 
	d="
M38.523552,50.158089 
	C38.760365,50.188095 38.913723,50.573105 38.824215,51.093384 
	C38.534264,50.990131 38.487183,50.751614 38.523552,50.158089 
z"/>
<path fill="#3EA4A1" opacity="1.000000" stroke="none" 
	d="
M38.653656,58.203339 
	C39.040295,58.056599 39.445843,58.378426 40.064812,59.030212 
	C39.743011,59.130753 39.207790,58.901329 38.653656,58.203339 
z"/>
<path fill="#3EA4A1" opacity="1.000000" stroke="none" 
	d="
M58.203396,59.346317 
	C58.056648,58.959686 58.378468,58.554131 59.030235,57.935135 
	C59.130775,58.256931 58.901367,58.792164 58.203396,59.346317 
z"/>
</svg>