<svg version="1.1" id="Layer_1" xmlns="http://www.w3.org/2000/svg" xmlns:xlink="http://www.w3.org/1999/xlink" x="0px" y="0px"
	 width="100%" viewBox="0 0 374 374" enable-background="new 0 0 374 374" xml:space="preserve">
<path fill="#003371" opacity="1.000000" stroke="none" 
	d="
M1.000000,336.000000 
	C1.000000,237.645767 1.000000,139.291550 1.367396,40.467491 
	C2.222117,39.185764 2.863373,38.428524 3.173997,37.553867 
	C9.147632,20.733234 20.438454,9.251773 37.311146,3.267140 
	C38.345364,2.900310 39.109955,1.773309 40.000000,1.000000 
	C138.354233,1.000000 236.708450,1.000000 335.532532,1.367388 
	C336.814270,2.222055 337.571564,2.863173 338.446228,3.173839 
	C355.266174,9.148111 366.749573,20.437059 372.733429,37.310757 
	C373.100189,38.345024 374.226898,39.109814 375.000000,39.999992 
	C375.000000,138.354233 375.000000,236.708450 374.632629,335.532715 
	C373.778473,336.815033 373.138214,337.572845 372.827545,338.447723 
	C366.854797,355.269165 355.564362,366.750916 338.690155,372.733765 
	C337.655640,373.100525 336.890503,374.227020 336.000000,375.000000 
	C237.645767,375.000000 139.291550,375.000000 40.467316,374.632629 
	C39.185143,373.778381 38.427475,373.138031 37.552719,372.827301 
	C20.732426,366.853088 9.249694,355.563354 3.266298,338.689484 
	C2.899532,337.655182 1.773019,336.890259 1.000000,336.000000 
M235.059509,190.966553 
	C235.059509,190.966553 235.081955,190.964935 235.205215,190.169861 
	C235.053131,185.515381 237.149704,181.989594 240.404816,178.797607 
	C250.952682,168.454269 261.394409,158.002014 271.809082,147.524185 
	C273.415924,145.907593 274.665710,143.936096 276.571838,141.672684 
	C278.872070,139.773895 281.374237,138.071228 283.439758,135.944458 
	C296.857941,122.128326 294.509735,100.377785 278.534668,89.688942 
	C263.726593,79.780945 244.986618,84.781334 233.753159,101.509483 
	C231.967102,102.964897 230.046204,104.284065 228.416275,105.897240 
	C215.192017,118.985611 202.022324,132.129074 188.228714,144.957367 
	C186.653946,143.472168 185.041245,142.024948 183.510254,140.495911 
	C168.062408,125.067650 152.630280,109.623642 137.188705,94.189095 
	C129.134491,86.138535 119.417679,83.065964 108.375839,85.587288 
	C97.086151,88.165184 89.499428,95.369156 86.255424,106.480202 
	C83.000114,117.629974 85.706352,127.681923 93.852814,135.936600 
	C108.017006,150.288940 122.397758,164.427383 136.663666,178.679581 
	C143.564743,185.574020 143.556686,190.434006 136.629257,197.354858 
	C122.481331,211.489319 108.306229,225.596619 94.135796,239.708542 
	C88.451828,245.369019 85.325478,252.198624 85.041565,260.206207 
	C84.604309,272.539185 91.829781,283.756622 103.252075,288.762695 
	C114.629456,293.749084 127.496536,291.331146 136.907104,282.035828 
	C152.795410,266.342133 168.512604,250.475250 184.322510,234.701996 
	C185.729309,233.298492 187.288422,232.047653 189.263031,231.259491 
	C206.532913,248.396667 223.753067,265.584351 241.093903,282.649445 
	C249.600372,291.020630 259.963867,293.204865 271.116791,289.739349 
	C282.127716,286.318024 289.191467,278.543457 291.499420,267.142761 
	C293.717133,256.187958 290.296967,246.801834 282.427429,238.912994 
	C266.895935,223.343353 251.424088,207.714233 235.753571,191.638580 
	C235.517944,191.408432 235.282318,191.178299 235.059509,190.966553 
z"/>

<path fill="#0aa5e2" opacity="1.000000" stroke="none" 
	d="
M188.776794,230.725922 
	C187.288422,232.047653 185.729309,233.298492 184.322510,234.701996 
	C168.512604,250.475250 152.795410,266.342133 136.907104,282.035828 
	C127.496536,291.331146 114.629456,293.749084 103.252075,288.762695 
	C91.829781,283.756622 84.604309,272.539185 85.041565,260.206207 
	C85.325478,252.198624 88.451828,245.369019 94.135796,239.708542 
	C108.306229,225.596619 122.481331,211.489319 136.629257,197.354858 
	C143.556686,190.434006 143.564743,185.574020 136.663666,178.679581 
	C122.397758,164.427383 108.017006,150.288940 93.852814,135.936600 
	C85.706352,127.681923 83.000114,117.629974 86.255424,106.480202 
	C89.499428,95.369156 97.086151,88.165184 108.375839,85.587288 
	C119.417679,83.065964 129.134491,86.138535 137.188705,94.189095 
	C152.630280,109.623642 168.062408,125.067650 183.510254,140.495911 
	C185.041245,142.024948 186.653946,143.472168 188.699188,145.389618 
	C197.434418,154.258713 205.699188,162.695572 214.105164,171.309906 
	C214.445877,171.720581 214.680756,171.909912 214.950684,172.032654 
	C214.950348,172.009964 214.914444,172.037766 214.996948,172.315826 
	C215.403320,173.065842 215.727158,173.537781 216.020996,173.998993 
	C215.990997,173.988251 216.025208,173.934540 216.069412,174.320038 
	C221.702209,189.732712 218.075287,202.297852 206.356628,213.032639 
	C200.232803,218.642334 194.620255,224.810165 188.776794,230.725922 
z"/>
<path fill="#0b76b4" opacity="1.000000" stroke="none" 
	d="
M189.019913,230.992706 
	C194.620255,224.810165 200.232803,218.642334 206.356628,213.032639 
	C218.075287,202.297852 221.702209,189.732712 216.401016,174.398468 
	C218.051483,175.256271 219.456467,176.375946 220.770126,177.594116 
	C225.557236,182.033264 230.313858,186.505295 235.081955,190.964935 
	C235.081955,190.964935 235.059509,190.966553 235.133881,191.195023 
	C235.448044,191.652222 235.687805,191.880966 235.927582,192.109695 
	C251.424088,207.714233 266.895935,223.343353 282.427429,238.912994 
	C290.296967,246.801834 293.717133,256.187958 291.499420,267.142761 
	C289.191467,278.543457 282.127716,286.318024 271.116791,289.739349 
	C259.963867,293.204865 249.600372,291.020630 241.093903,282.649445 
	C223.753067,265.584351 206.532913,248.396667 189.019913,230.992706 
z"/>
<path fill="#044c79" opacity="1.000000" stroke="none" 
	d="
M235.143585,190.567398 
	C230.313858,186.505295 225.557236,182.033264 220.770126,177.594116 
	C219.456467,176.375946 218.051483,175.256271 216.356812,174.012970 
	C216.025208,173.934540 215.990997,173.988251 215.978790,173.708313 
	C215.615875,172.964828 215.265167,172.501297 214.914444,172.037766 
	C214.914444,172.037766 214.950348,172.009964 214.810242,171.853821 
	C214.466675,171.469360 214.231277,171.280945 213.963943,171.132431 
	C205.699188,162.695572 197.434418,154.258713 189.002823,145.538803 
	C202.022324,132.129074 215.192017,118.985611 228.416275,105.897240 
	C230.046204,104.284065 231.967102,102.964897 234.060577,101.861160 
	C234.029144,103.321579 233.682877,104.428131 233.352524,105.539398 
	C227.829163,124.118927 239.331894,142.416382 258.569946,144.462097 
	C264.259766,145.067139 270.235779,142.981400 276.080627,142.128723 
	C274.665710,143.936096 273.415924,145.907593 271.809082,147.524185 
	C261.394409,158.002014 250.952682,168.454269 240.404816,178.797607 
	C237.149704,181.989594 235.053131,185.515381 235.143585,190.567398 
z"/>
<path fill="#0aa5e2" opacity="1.000000" stroke="none" 
	d="
M276.326233,141.900696 
	C270.235779,142.981400 264.259766,145.067139 258.569946,144.462097 
	C239.331894,142.416382 227.829163,124.118927 233.352524,105.539398 
	C233.682877,104.428131 234.029144,103.321579 234.405182,101.833473 
	C244.986618,84.781334 263.726593,79.780945 278.534668,89.688942 
	C294.509735,100.377785 296.857941,122.128326 283.439758,135.944458 
	C281.374237,138.071228 278.872070,139.773895 276.326233,141.900696 
z"/>
</svg>